<svg xmlns="http://www.w3.org/2000/svg" viewBox="0 0 300 300"><defs><style>.a{fill:#98b6c6;}</style></defs><path class="a" d="M150,13.5C74.73,13.5,13.5,74.73,13.5,150S74.73,286.5,150,286.5,286.5,225.27,286.5,150,225.27,13.5,150,13.5Zm0,267a130.5,130.5,0,1,1,92.28-38.22A130.51,130.51,0,0,1,150,280.5Z"/><polygon class="a" points="230.75 151 230.67 151.08 230.59 151 230.75 151"/><polygon class="a" points="230.67 151.08 230.59 151 230.75 151 230.67 151.08"/><polygon class="a" points="230.46 153 230.87 153 230.67 153.21 230.46 153"/><polygon class="a" points="232.2 154.5 232.08 154.62 231.96 154.5 232.2 154.5"/><polygon class="a" points="232.2 154.5 232.08 154.62 231.96 154.5 232.2 154.5"/><polygon class="a" points="230.46 153 230.87 153 230.67 153.21 230.46 153"/><polygon class="a" points="232.2 154.5 232.08 154.62 231.96 154.5 232.2 154.5"/><polygon class="a" points="230.75 151 230.67 151.08 230.59 151 230.75 151"/><path class="a" d="M236.12,151.58l-1.71-1.71-.37-.37L174.71,90.17l-3.54,3.54L227,149.5H82.55v5h144.7l-56.08,56.08,3.54,3.54,59.62-59.62.08-.08,1.71-1.71-.56-.56Zm-5.45,1.63-.21-.21h.41Zm.08-2.21-.08.08-.08-.08Zm1.21,3.5h.24l-.12.12Z"/><polygon class="a" points="230.67 151.08 230.59 151 230.75 151 230.67 151.08"/><polygon class="a" points="230.46 153 230.87 153 230.67 153.21 230.46 153"/><polygon class="a" points="234.41 149.5 234.41 149.87 234.04 149.5 234.41 149.5"/><polygon class="a" points="234.33 154.5 234.41 154.42 234.41 154.5 234.33 154.5"/></svg>