<svg xmlns="http://www.w3.org/2000/svg" viewBox="0 0 94 28"><defs><style>.a{fill:#2d2a28;}</style></defs><path class="a" d="M23.05,20.8V8.62h4a6.88,6.88,0,0,1,2.55.47,6.05,6.05,0,0,1,2,1.26A5.56,5.56,0,0,1,33,12.27a6.47,6.47,0,0,1,0,4.89,5.67,5.67,0,0,1-1.32,1.92,6.23,6.23,0,0,1-2,1.26,7,7,0,0,1-2.57.46Zm4.09-11H24.39v9.74h2.75a5.14,5.14,0,0,0,2-.37,4.8,4.8,0,0,0,1.59-1,4.87,4.87,0,0,0,1-1.54,4.79,4.79,0,0,0-2.63-6.42A5.15,5.15,0,0,0,27.14,9.84Z"/><path class="a" d="M35.57,20.8V8.62h1.34V20.8Z"/><path class="a" d="M45.61,19.93l-4.77-9.76V20.8H39.59V8.62h1.88l4.16,8.65,4.14-8.65h1.88V20.8H50.38V10.16Z"/><path class="a" d="M66.29,14.71a6.35,6.35,0,0,1-.48,2.46A6.19,6.19,0,0,1,60,21a6.27,6.27,0,0,1-4.46-1.81,6.38,6.38,0,0,1-1.82-4.47,6.33,6.33,0,0,1,1.82-4.46,6.33,6.33,0,0,1,8.9,0,6.17,6.17,0,0,1,1.34,2A6.35,6.35,0,0,1,66.29,14.71Zm-1.35,0a5.12,5.12,0,0,0-.39-2,5,5,0,0,0-1-1.6,5,5,0,0,0-5.44-1.06,4.7,4.7,0,0,0-1.55,1.06,5,5,0,0,0-1,1.6,5.4,5.4,0,0,0,0,4,5.26,5.26,0,0,0,1,1.6,4.72,4.72,0,0,0,1.55,1.07,4.9,4.9,0,0,0,5.44-1.07,5.23,5.23,0,0,0,1-1.6A5.08,5.08,0,0,0,64.94,14.71Z"/><path class="a" d="M68.4,20.8V8.62h5.22a4.21,4.21,0,0,1,2.87,1,3.21,3.21,0,0,1,1.09,2.53,3.18,3.18,0,0,1-.7,2.07A3.6,3.6,0,0,1,75,15.39l2.73,5.41H76.24l-2.61-5.23H69.74V20.8Zm5.13-11H69.74v4.6h3.79a2.92,2.92,0,0,0,2-.63,2.08,2.08,0,0,0,.75-1.68,2.08,2.08,0,0,0-.75-1.67A2.92,2.92,0,0,0,73.53,9.83Z"/><path class="a" d="M78.52,20.8,83.58,8.62H85.2l5,12.18H88.73L87.2,17H81.46L79.91,20.8Zm3.41-5h4.8L84.35,9.88Z"/><polygon class="a" points="19.34 20.72 3.81 20.72 3.81 12.76 8.67 7.12 13.78 12.57 12.87 13.42 8.71 8.98 5.05 13.22 5.05 19.48 19.34 19.48 19.34 20.72"/><rect class="a" x="12.86" y="6.51" width="1.24" height="6.78" transform="translate(-3.13 11.9) rotate(-43.15)"/><rect class="a" x="15.95" y="6.51" width="1.24" height="6.78" transform="translate(-2.29 14.01) rotate(-43.15)"/></svg>