<svg xmlns="http://www.w3.org/2000/svg" xmlns:xlink="http://www.w3.org/1999/xlink" viewBox="0 0 468 494.16"><defs><style>.a{fill:none;}.b{clip-path:url(#a);}.c,.d{fill:#fff;}.c{stroke:#fff;stroke-miterlimit:10;stroke-width:2px;}</style><clipPath id="a"><rect class="a" x="-29.93" width="501.03" height="501.03"/></clipPath></defs><g class="b"><path class="c" d="M141.62,395.71c-.35-1.73-35.11-173.11-48-229.63-9.69-42.51-42-170-42.33-171.29l2.91-.73c.32,1.28,32.64,128.81,42.34,171.35,12.89,56.55,47.66,228,48,229.7Z"/><path class="c" d="M62.22,408l-.4-.18c-.53-.23-52.58-23.15-70.25-29.63C-29,370.59-92.68,351.7-93.32,351.51l.85-2.87c.64.19,64.36,19.1,85.07,26.7,16.93,6.2,65.08,27.34,70,29.52,10-1.62,184.59-29.74,244.06-32.61,36.51-1.77,144.66,5.06,151.2,5.48l12.73-4.4,1,2.83-13.3,4.6-.3,0c-1.13-.07-113.87-7.3-151.16-5.5-60.77,2.94-242.34,32.35-244.17,32.65Z"/><path class="c" d="M-42.55,745l-2.72-1.26c.63-1.38,64.12-138.39,96.72-195.61,31.39-55.09,94-151.28,126.4-198.94,22.25-32.71,59.59-85.66,92.54-132.37,22-31.17,42.74-60.61,57.47-81.8C352,100.3,423.63-5.35,424.35-6.42l2.48,1.69c-.72,1.06-72.36,106.73-96.51,141.5-14.73,21.2-35.5,50.65-57.48,81.82-32.94,46.7-70.27,99.64-92.51,132.33C147.94,398.54,85.4,494.63,54.06,549.65,21.52,606.76-41.91,743.66-42.55,745Z"/><polygon class="c" points="266.15 224.99 96.24 49.84 111.98 -5.98 114.86 -5.17 99.6 48.99 268.31 222.9 266.15 224.99"/><rect class="d" x="66.56" y="51.72" width="117.89" height="3" transform="translate(-9.31 73.46) rotate(-31.52)"/><polygon class="d" points="313.98 374.09 311.19 372.99 360.02 249.04 342.21 171.84 321.23 146.5 323.54 144.58 344.97 170.48 345.05 170.82 363.15 249.28 362.98 249.71 313.98 374.09"/><polygon class="d" points="329.16 155.29 277.65 77.68 178.28 26.25 178.19 26.18 141.44 -4.81 142.73 -6.34 179.4 24.57 279.03 76.14 279.17 76.36 330.83 154.18 329.16 155.29"/><polygon class="d" points="134.02 86.64 132.65 85.18 162.84 56.94 145.01 41.62 146.31 40.11 165.84 56.88 134.02 86.64"/><rect class="d" x="197.4" y="115.35" width="97.85" height="2" transform="translate(-15.5 191.6) rotate(-41.32)"/><rect class="d" x="211.94" y="83.86" width="53.83" height="3" transform="translate(9.67 194.06) rotate(-45.04)"/><polygon class="d" points="239.77 122.3 177.1 68.2 206.94 39.59 208.33 41.04 180.07 68.12 241.08 120.78 239.77 122.3"/><rect class="d" x="175.54" y="23.29" width="2" height="39.79" transform="translate(41.81 165.16) rotate(-55.9)"/><rect class="d" x="168.77" y="32.75" width="17.5" height="2" transform="translate(18.11 118.84) rotate(-38.86)"/><rect class="d" x="180.81" y="40.33" width="18.8" height="2" transform="translate(24.69 143.76) rotate(-44.01)"/><rect class="d" x="170.46" y="53.46" width="2" height="18.16" transform="translate(16.13 158.36) rotate(-51.71)"/><rect class="d" x="248.11" y="80.95" width="2" height="28.43" transform="translate(14.78 222.45) rotate(-49.42)"/><rect class="d" x="259.42" y="69.69" width="2" height="29.8" transform="translate(39.07 245.78) rotate(-54.06)"/><rect class="d" x="82.96" y="112.55" width="66.81" height="2" transform="translate(-36.42 57.95) rotate(-24.3)"/><polygon class="d" points="161.53 268.31 112.34 115.24 114.25 114.63 162.89 266.01 187.9 261.18 188.28 263.14 161.53 268.31"/><rect class="d" x="66.73" y="149.49" width="56.76" height="2" transform="translate(-27.57 21.48) rotate(-11.27)"/><rect class="d" x="106.75" y="159.03" width="20.55" height="2" transform="translate(-33.93 31.51) rotate(-13.41)"/><rect class="d" x="114.97" y="179.28" width="18.88" height="2" transform="translate(-37.47 32.72) rotate(-13.04)"/><rect class="d" x="88.31" y="199.86" width="51.33" height="2" transform="translate(-48.69 36.92) rotate(-15.2)"/><rect class="d" x="93.55" y="218.66" width="52.1" height="2" transform="translate(-55.14 40.72) rotate(-15.75)"/><rect class="d" x="122.38" y="145.11" width="58.4" height="3" transform="translate(-59.08 136.92) rotate(-41.41)"/><rect class="d" x="134.02" y="180.37" width="68.38" height="2" transform="translate(-76.43 144.73) rotate(-38.64)"/><polygon class="d" points="150.54 230.04 149.17 227.38 187.13 207.88 217.03 172.19 262.88 128 264.96 130.16 219.17 174.29 189.04 210.27 150.54 230.04"/><polygon class="d" points="186.96 210.07 164.34 184.42 141.9 155.02 144.28 153.2 166.7 182.56 189.21 208.09 186.96 210.07"/><polygon class="d" points="95.12 264.31 88.55 258.49 89.88 257 95.72 262.17 115.04 258.76 156.85 250.85 189.14 225.93 235.78 191.33 236.97 192.93 190.35 227.53 157.69 252.73 157.46 252.77 115.4 260.72 95.12 264.31"/><polygon class="d" points="102.83 301.26 94.44 263.46 96.4 263.03 104.35 298.89 122.54 295.07 122.95 297.02 102.83 301.26"/><polygon class="d" points="99.75 282.63 99.26 280.69 118.49 275.74 162 266.18 162.43 268.14 118.96 277.69 99.75 282.63"/><polygon class="d" points="199.45 247.87 188.87 227.18 180.4 213.1 182.11 212.07 190.61 226.21 201.23 246.96 199.45 247.87"/><rect class="d" x="206.41" y="191.52" width="2" height="19.87" transform="translate(-81.42 214.96) rotate(-46.84)"/><rect class="d" x="248.97" y="156.44" width="77.76" height="3" transform="translate(-13.78 287.63) rotate(-52.02)"/><rect class="d" x="239" y="139.21" width="68.86" height="3" transform="translate(-19.33 234.83) rotate(-45.05)"/><rect class="d" x="228.26" y="134.71" width="3" height="22.86" transform="translate(-39.35 187.69) rotate(-41.23)"/><rect class="d" x="241.58" y="123.3" width="2" height="22.06" transform="translate(-26.55 201.08) rotate(-42.91)"/><rect class="d" x="260.27" y="109.21" width="2" height="36.2" transform="translate(-17.77 208.6) rotate(-42.22)"/><polygon class="d" points="299.38 178.3 282.48 165.88 262.35 152.06 263.49 150.42 283.63 164.25 300.56 176.69 299.38 178.3"/><polygon class="d" points="313.87 157.63 297.73 145.31 281.38 132.94 282.59 131.34 298.94 143.71 315.09 156.04 313.87 157.63"/><polygon class="c" points="20.65 388.15 17.76 387.33 29.39 346.31 62.58 338.91 186.36 337.93 186.38 340.93 62.76 341.91 31.79 348.85 20.65 388.15"/><rect class="d" x="95.72" y="360.46" width="40.25" height="2" transform="translate(-19.95 7.01) rotate(-3.19)"/><rect class="d" x="3.06" y="414.43" width="46.38" height="2" transform="translate(-328.9 198.3) rotate(-54.94)"/><rect class="d" x="40.29" y="404.55" width="2" height="30.43" transform="translate(-363.87 302.48) rotate(-68.24)"/><polygon class="d" points="44.99 203.24 33.34 184.44 33.34 137.54 35.34 137.54 35.34 183.88 46.69 202.19 44.99 203.24"/><rect class="d" x="33.78" y="169.49" width="52.71" height="2" transform="translate(-33.77 16) rotate(-11.86)"/><rect class="d" x="38.74" y="185.86" width="52.14" height="2" transform="translate(-36.43 16.96) rotate(-11.66)"/><rect class="d" x="204.02" y="225.31" width="55.68" height="2" transform="matrix(0.53, -0.85, 0.85, 0.53, -83, 302.73)"/><rect class="d" x="237.29" y="227.95" width="2" height="27.35" transform="translate(-81.4 355.49) rotate(-65)"/><polygon class="d" points="312.2 280.57 242.31 260.5 242.86 258.58 311.36 278.25 352.61 217.23 290.95 190.66 291.74 188.82 355.62 216.35 312.2 280.57"/><polygon class="d" points="292.42 260.81 254.32 242.53 255.19 240.73 291.75 258.27 311.09 230.4 274.81 213.49 275.66 211.68 314.08 229.59 292.42 260.81"/><rect class="d" x="310.4" y="241.74" width="2" height="27.71" transform="translate(-49.51 434.6) rotate(-65.76)"/><rect class="d" x="292.56" y="264.49" width="24.04" height="2" transform="matrix(0.57, -0.82, 0.82, 0.57, -86.87, 365.62)"/><rect class="d" x="307.28" y="217.59" width="29.85" height="2" transform="translate(-52.59 324.07) rotate(-49.87)"/><rect class="d" x="280.63" y="264.44" width="14.49" height="2" transform="translate(-95.4 345.63) rotate(-54.49)"/><rect class="d" x="309.93" y="184.83" width="40.05" height="2" transform="translate(-30.79 301.03) rotate(-47.1)"/><rect class="d" x="316.88" y="162.86" width="2" height="29.34" transform="translate(-7.95 340) rotate(-55.69)"/><rect class="d" x="296.02" y="288.27" width="2" height="67.64" transform="translate(-79.11 546.79) rotate(-78.17)"/><polygon class="d" points="346.34 373.54 344.34 373.54 344.34 361.07 259.29 334.11 259.89 332.21 346.34 359.61 346.34 373.54"/><rect class="d" x="342.02" y="243.12" width="2" height="28.63" transform="matrix(0.27, -0.96, 0.96, 0.27, 2.87, 518.65)"/><rect class="d" x="327.56" y="267.25" width="2" height="35.31" transform="translate(-44.51 508.39) rotate(-71.85)"/><polygon class="d" points="285.7 87.75 284.37 86.26 353.63 24.17 414.81 8.98 415.3 10.92 354.6 25.99 285.7 87.75"/><rect class="d" x="296.34" y="8.51" width="2" height="57.59" transform="translate(49.95 206.42) rotate(-41.51)"/><polygon class="d" points="344.86 44.01 338.2 39.44 292.39 -4.86 293.78 -6.29 339.53 37.94 345.99 42.36 344.86 44.01"/><rect class="d" x="292.41" y="25.48" width="27.77" height="2" transform="translate(64.88 216.85) rotate(-43.2)"/><rect class="d" x="344.69" y="37.83" width="2" height="54.33" transform="translate(162.91 365.53) rotate(-69.34)"/><rect class="d" x="327.84" y="53.97" width="2" height="60.41" transform="translate(127.4 357.38) rotate(-67.96)"/><rect class="d" x="362.98" y="22.1" width="2" height="45.54" transform="translate(155.69 346.71) rotate(-62.42)"/><polygon class="d" points="405.67 89.72 365.94 82.91 366.27 80.94 404.17 87.43 416.83 35.27 399.11 34.35 399.22 32.35 419.34 33.39 405.67 89.72"/><rect class="d" x="392.25" y="50.92" width="2" height="33.11" transform="translate(298.62 455.08) rotate(-86.02)"/><rect class="d" x="389.93" y="76.98" width="19.05" height="2" transform="translate(247.43 455.51) rotate(-79.11)"/><rect class="d" x="375.7" y="74.89" width="18.31" height="2" transform="translate(210.69 427.37) rotate(-74.8)"/><polygon class="d" points="360.86 506.76 241.85 380.79 192.83 329.72 194.27 328.33 243.3 379.41 362.31 505.39 360.86 506.76"/><rect class="d" x="330.71" y="465.51" width="34.87" height="2" transform="translate(-217.31 328.32) rotate(-39.53)"/><rect class="d" x="293.71" y="427.58" width="28.9" height="2" transform="matrix(0.79, -0.61, 0.61, 0.79, -197.87, 278.3)"/><rect class="d" x="360.92" y="445.64" width="2" height="61.2" transform="translate(-213.18 311.78) rotate(-36.81)"/><polygon class="d" points="458.48 600.01 416.75 376.83 421.8 361.15 423.71 361.77 418.81 376.96 460.45 599.64 458.48 600.01"/><rect class="d" x="437.59" y="488.32" width="36.65" height="2" transform="translate(-195.6 338.25) rotate(-33.97)"/><rect class="d" x="412.19" y="414.04" width="2" height="83.02" transform="translate(-192.48 348.67) rotate(-37.78)"/><polygon class="d" points="211.31 546.51 210.91 546.27 96.25 477.1 97.29 475.39 211.53 544.31 274.45 522 274.81 522.15 315.47 539.15 314.7 541 274.39 524.15 211.31 546.51"/><polygon class="d" points="79.35 559.77 58.22 546.25 59.29 544.57 78.82 557.05 124.46 492.86 126.09 494.02 79.35 559.77"/><polygon class="d" points="352.1 203.58 351.08 201.86 392.88 177.18 349.53 105.46 351.24 104.42 395.63 177.87 352.1 203.58"/><rect class="d" x="327.82" y="143.49" width="42.91" height="2" transform="translate(-19.54 227.23) rotate(-35.12)"/><rect class="d" x="340.84" y="123.66" width="2" height="23.63" transform="translate(-25.03 160.31) rotate(-25.49)"/><polygon class="d" points="470.52 149.47 454.2 137.7 361.45 124.46 361.73 122.48 454.97 135.79 471.69 147.85 470.52 149.47"/><rect class="d" x="439.5" y="133.49" width="37.02" height="2" transform="translate(38.97 363.11) rotate(-44.98)"/><rect class="d" x="453.5" y="153.59" width="19.52" height="2" transform="translate(-24.92 168.15) rotate(-20.05)"/><rect class="d" x="413.42" y="131.01" width="2" height="25.82"/><rect class="d" x="394.2" y="175.38" width="25.44" height="2" transform="translate(-14.2 37.27) rotate(-5.15)"/><rect class="d" x="447.24" y="171.74" width="23.89" height="2" transform="translate(-8.9 25.83) rotate(-3.19)"/><polygon class="d" points="391.14 278.38 389.37 277.44 398.07 261.06 395.58 212.41 411.02 175.55 412.86 176.32 397.6 212.76 400.1 261.51 391.14 278.38"/><rect class="d" x="352.26" y="203.73" width="100.76" height="2" transform="translate(-18.87 42.37) rotate(-5.89)"/><rect class="d" x="452.26" y="174.95" width="2" height="50.93" transform="translate(-10.59 374.92) rotate(-44.47)"/><rect class="d" x="396.7" y="215.63" width="68.12" height="2" transform="matrix(0.99, -0.14, 0.14, 0.99, -26.18, 62.72)"/><rect class="d" x="416.92" y="219.84" width="2" height="46" transform="translate(7.92 498.83) rotate(-62.14)"/><rect class="d" x="407.51" y="253.74" width="2" height="19.3" transform="translate(62.43 604.68) rotate(-77.41)"/><rect class="d" x="439.88" y="203.37" width="2" height="63.41" transform="translate(15.44 497.07) rotate(-59.69)"/><rect class="d" x="456.78" y="253.15" width="20.78" height="2" transform="translate(27.63 553.56) rotate(-62.81)"/><rect class="d" x="433.96" y="222.97" width="24.62" height="2" transform="translate(20.74 485.2) rotate(-58.2)"/><rect class="d" x="394.88" y="243.47" width="41.76" height="2" transform="translate(18.18 517.52) rotate(-64.94)"/><rect class="d" x="428.08" y="183.06" width="2" height="33.72" transform="translate(-9.24 21.17) rotate(-2.8)"/><rect class="d" x="378.69" y="228.52" width="2" height="37.49" transform="translate(116.07 615.78) rotate(-87.5)"/><polygon class="d" points="470.69 310.15 403.69 279.57 369.73 278.89 351.49 275.3 351.87 273.33 370.03 276.91 404.15 277.58 471.52 308.33 470.69 310.15"/><rect class="d" x="361.61" y="298.19" width="2" height="60.09" transform="translate(-54.89 583.02) rotate(-73.55)"/><rect class="d" x="387.25" y="309.7" width="51.3" height="2" transform="translate(-10.97 606.26) rotate(-71.85)"/><rect class="d" x="409.75" y="314" width="44.34" height="3" transform="translate(6.14 639.24) rotate(-73.39)"/><rect class="d" x="430.65" y="321.86" width="41.61" height="2" transform="translate(20.26 672.31) rotate(-74.59)"/><polygon class="d" points="471.63 329.98 451.17 323.81 431.57 316.43 432.27 314.56 451.81 321.92 472.21 328.07 471.63 329.98"/><rect class="d" x="363.21" y="305.52" width="58.58" height="2" transform="translate(-15.57 591.99) rotate(-72.96)"/><rect class="d" x="337.7" y="301.07" width="50.33" height="2" transform="translate(-28.79 565.73) rotate(-73.72)"/><rect class="d" x="462.38" y="391.13" width="2" height="17.3" transform="translate(-4.97 793.74) rotate(-80.86)"/><path class="d" d="M-13.86,148.05l-.17-2L-1.71,145l.17,2Zm24.65-2.17-.18-2,12.33-1.08.17,2Zm24.64-2.16-.17-2,12.32-1.08.18,2Zm24.65-2.17-.18-2,12.33-1.08.17,2Zm24.64-2.16-.17-2,12.32-1.08.18,2Zm24.65-2.17-.17-2,12.32-1.09.17,2Zm24.42-4.28-1.38-1.45,9-8.5,1.37,1.46Zm18-17-1.38-1.46,9-8.49,1.37,1.46Zm18-17-1.37-1.46,9-8.49,1.38,1.45Zm18-17-1.37-1.45,9-8.49,1.38,1.45Zm18-17-1.37-1.45,9-8.49,1.37,1.45Z"/><polygon class="d" points="236.51 49.72 227.56 44.43 223.75 48.03 222.37 46.58 227.28 41.94 236.23 47.23 240.04 43.62 241.42 45.08 236.51 49.72"/><path class="d" d="M249.41,37.51,248,36.06l8-7.56L257.4,30Zm16-15.12L264,20.93l8-7.56,1.38,1.45Z"/><rect class="d" x="279.86" y="3.47" width="6" height="2" transform="translate(74.39 195.7) rotate(-43.44)"/><path class="d" d="M299.26,564.28l-10.45-5.88,1-1.74,10.46,5.88Zm-20.91-11.76-10.46-5.89,1-1.74,10.46,5.88Zm-13.67-18-2.22-11.8,2-.37,2.23,11.8Zm-4.44-23.59-1.79-9.49,3.79-1.38.69,1.88-2.2.8,1.47,7.82Zm67.29-1.05L318.06,506l.76-1.85,8.49,3.51,1.46-1,1.11,1.67Zm12.32-8.23L338.74,500l10-6.66,1.11,1.66ZM307,501.37l-11.09-4.58.76-1.85,11.09,4.59Zm-32.77-3.54-.68-1.88,11.28-4.1.68,1.87Zm85.6-9.53-1.11-1.66,10-6.67,1.11,1.66Zm20-13.34-1.11-1.66,7.77-5.2-.39-.66,1.73-1,1.33,2.29Zm.22-17.89-1-1.79,9.44-6.95,1.19,1.61-8,5.88.14.24Zm19.26-14.24-1.19-1.61,9.67-7.11,1.18,1.61Zm19.33-14.22L417.38,427l9.67-7.11,1.19,1.61Zm17.06-16.72-1.82-.83,5-10.91,1.82.84Zm10-21.8-1.81-.84,5-10.9,1.82.84Zm10-21.81-1.81-.83,5-10.9,1.82.83Zm10-21.8-1.82-.84,4.29-9.31,1.82.83Z"/></g></svg>