<svg version="1.2" xmlns="http://www.w3.org/2000/svg" viewBox="0 0 614 156" width="614" height="156"><style>.a{fill:#fff}</style><path class="a" d="m82.7 0.6h41.8v155.5h-41.8z"/><path class="a" d="m0.7 0.6h41.8v155.5h-41.8z"/><path class="a" d="m251 19.1v85l-84.2-103.5h65.6c10.3 0 18.6 8.2 18.6 18.5z"/><path class="a" d="m251 156.1h-41.8l-126.5-155.5h41.8z"/><path class="a" d="m445.1 156.1h-41.7v-155.5h41.7z"/><path class="a" d="m276.9 137.6v-85.1l84.2 103.6h-65.7c-10.2 0-18.5-8.3-18.5-18.5z"/><path class="a" d="m276.9 0.6h41.8l126.5 155.5h-41.8z"/><path class="a" d="m582.4 31.9c-6.6-6.5-11.1-15.2-12.5-24.8 16.5 7.4 29.9 20.8 37.3 37.3-9.6-1.4-18.3-5.9-24.8-12.5z"/><path class="a" d="m613.7 74.9c0 41-33.3 74.3-74.4 74.3-41 0-74.3-33.3-74.3-74.3 0-41.1 33.3-74.4 74.3-74.4 10.6 0 20.6 2.2 29.6 6.2-1.3 9.8-5.9 18.5-12.5 25.2-8 8-19.1 13-31.4 13 24.5 0 44.4 19.8 44.4 44.3 0-12.2 4.9-23.3 13-31.3 6.6-6.7 15.4-11.2 25.2-12.6 3.9 9.1 6.1 19.1 6.1 29.6z"/></svg>